<svg width="343" height="219" viewBox="0 0 343 219" fill="none" xmlns="http://www.w3.org/2000/svg">
<g clip-path="url(#clip0_207_174)">
<rect x="0.865234" y="0.0958252" width="341.746" height="218.493" rx="6.72287" fill="url(#paint0_linear_207_174)"/>
<path opacity="0.4" d="M69.489 102.62C44.3086 102.516 20.1137 112.401 2.20891 130.109C-15.6958 147.817 -25.8492 171.904 -26.0263 197.088C-26.0444 209.511 -23.582 221.812 -18.7832 233.27C-13.9844 244.728 -6.94611 255.113 1.91897 263.814C5.67346 267.503 10.7266 269.571 15.9902 269.571C21.2538 269.571 26.3069 267.503 30.0614 263.814C31.9089 261.995 33.3761 259.827 34.3776 257.436C35.3791 255.045 35.8946 252.479 35.8946 249.886C35.8946 247.294 35.3791 244.728 34.3776 242.336C33.3761 239.945 31.9089 237.778 30.0614 235.959C24.8956 230.877 20.7928 224.818 17.9923 218.134C15.1918 211.45 13.7496 204.276 13.7496 197.029C13.7496 189.782 15.1918 182.607 17.9923 175.924C20.7928 169.24 24.8956 163.18 30.0614 158.099C40.5619 147.766 54.7022 141.975 69.4326 141.975C84.1631 141.975 98.3033 147.766 108.804 158.099C113.97 163.18 118.072 169.24 120.873 175.924C123.673 182.607 125.116 189.782 125.116 197.029C125.116 204.276 123.673 211.45 120.873 218.134C118.072 224.818 113.97 230.877 108.804 235.959C106.957 237.777 105.489 239.944 104.488 242.335C103.486 244.726 102.971 247.292 102.971 249.884C102.971 252.476 103.486 255.042 104.488 257.432C105.489 259.823 106.957 261.99 108.804 263.808C112.558 267.498 117.611 269.565 122.875 269.565C128.139 269.565 133.192 267.498 136.946 263.808C145.833 255.118 152.894 244.739 157.714 233.282C162.535 221.824 165.016 209.519 165.015 197.088C164.838 171.902 154.683 147.814 136.776 130.105C118.869 112.396 94.6712 102.513 69.489 102.62Z" fill="url(#paint1_linear_207_174)"/>
<path d="M317.384 -59.9581C295.886 -60.0564 275.226 -51.6328 259.937 -36.5352C244.648 -21.4376 235.979 -0.89888 235.831 20.5753C235.831 42.1804 244.423 62.9006 259.717 78.1777C275.011 93.4548 295.755 102.037 317.384 102.037C339.013 102.037 359.756 93.4548 375.051 78.1777C390.345 62.9006 398.937 42.1804 398.937 20.5753C398.789 -0.89888 390.12 -21.4376 374.831 -36.5352C359.542 -51.6328 338.882 -60.0564 317.384 -59.9581ZM317.384 63.1094C308.982 63.0141 300.796 60.4382 293.857 55.7061C286.917 50.9739 281.534 44.297 278.385 36.5157C275.236 28.7344 274.461 20.1964 276.159 11.9765C277.857 3.75661 281.952 -3.77791 287.927 -9.6787C293.902 -15.5795 301.491 -19.5828 309.739 -21.1848C317.987 -22.7868 326.525 -21.9158 334.279 -18.6816C342.032 -15.4473 348.655 -9.99429 353.312 -3.00884C357.97 3.9766 360.455 12.1823 360.455 20.5753C360.423 26.1931 359.283 31.7496 357.101 36.9274C354.919 42.1053 351.738 46.8032 347.738 50.7529C343.739 54.7026 339 57.8267 333.792 59.9468C328.583 62.0669 323.008 63.1416 317.384 63.1094Z" fill="url(#paint2_linear_207_174)"/>
<g opacity="0.6">
<path d="M93.8753 111.805C95.0205 110.66 95.6639 109.107 95.6639 107.487C95.6639 105.868 95.0205 104.315 93.8753 103.169" stroke="white" stroke-width="2.8012" stroke-linecap="round" stroke-linejoin="round"/>
<path d="M98.5739 114.671C100.201 112.63 101.086 110.096 101.086 107.486C101.085 104.876 100.199 102.343 98.5721 100.301" stroke="white" stroke-width="2.8012" stroke-linecap="round" stroke-linejoin="round"/>
<path d="M102.716 117.497C104.895 114.632 106.08 111.135 106.091 107.535C106.101 103.936 104.937 100.432 102.774 97.5546" stroke="white" stroke-width="2.8012" stroke-linecap="round" stroke-linejoin="round"/>
<path d="M107.342 94.6132C110.138 98.4766 111.601 103.146 111.508 107.914C111.416 112.683 109.773 117.291 106.828 121.043" stroke="white" stroke-width="2.8012" stroke-linecap="round" stroke-linejoin="round"/>
</g>
<rect x="37.5607" y="89.482" width="47.4803" height="34.4469" rx="7.00299" fill="url(#paint3_linear_207_174)" stroke="url(#paint4_linear_207_174)" stroke-width="0.560239"/>
<mask id="mask0_207_174" style="mask-type:alpha" maskUnits="userSpaceOnUse" x="37" y="89" width="48" height="35">
<rect x="38.1209" y="90.0423" width="46.3598" height="33.3264" rx="6.44275" fill="#DCD59E" stroke="black" stroke-width="0.560239"/>
</mask>
<g mask="url(#mask0_207_174)">
<path opacity="0.5" fill-rule="evenodd" clip-rule="evenodd" d="M62.4059 90.8722C61.9957 90.0367 60.8046 90.0367 60.3943 90.8722L56.1782 99.459C56.1782 99.459 58.267 105.767 56.1782 112.962L60.375 122.473C60.7681 123.363 62.0321 123.363 62.4252 122.473L66.622 112.962C66.622 112.962 64.5333 109.052 66.622 99.459L62.4059 90.8722Z" stroke="#BFB985" stroke-width="0.728311" stroke-linejoin="bevel"/>
<path opacity="0.5" d="M37.3794 99.4131H56.0458" stroke="#BFB985" stroke-width="0.728311" stroke-linejoin="bevel"/>
<path opacity="0.5" d="M66.1787 99.4131H85.3784" stroke="#BFB985" stroke-width="0.728311" stroke-linejoin="bevel"/>
<path opacity="0.5" d="M37.3794 112.858H56.0458" stroke="#BFB985" stroke-width="0.728311" stroke-linejoin="bevel"/>
<path opacity="0.5" d="M66.1787 112.858H85.3784" stroke="#BFB985" stroke-width="0.728311" stroke-linejoin="bevel"/>
</g>
<path fill-rule="evenodd" clip-rule="evenodd" d="M69.6128 26.4429C69.8713 26.1773 70.0743 25.8629 70.21 25.5181C70.3457 25.1732 70.4114 24.8048 70.4034 24.4343C70.3953 24.0638 70.3135 23.6986 70.1629 23.36C70.0122 23.0214 69.7957 22.7161 69.5259 22.4621C67.8193 20.8443 65.6783 19.759 63.3647 19.3388C61.051 18.9186 58.6651 19.1817 56.4986 20.0959C54.3321 21.0102 52.479 22.5359 51.1659 24.4867C49.8528 26.4374 49.1367 28.7284 49.105 31.0797C49.1367 33.431 49.8528 35.7221 51.1659 37.6728C52.479 39.6235 54.3321 41.1493 56.4986 42.0635C58.6651 42.9778 61.051 43.2409 63.3647 42.8206C65.6783 42.4004 67.8193 41.3151 69.5259 39.6974C69.7957 39.4433 70.0122 39.1381 70.1629 38.7995C70.3135 38.4609 70.3953 38.0957 70.4034 37.7251C70.4114 37.3546 70.3457 36.9862 70.21 36.6414C70.0743 36.2965 69.8713 35.9821 69.6128 35.7165C69.0872 35.1774 68.3709 34.8664 67.6181 34.8505C66.8654 34.8345 66.1365 35.1149 65.5885 35.6312C64.3729 36.7783 62.7583 37.4069 61.087 37.3836C59.4157 37.3603 57.8192 36.687 56.6361 35.5064C56.0538 34.9256 55.5919 34.2356 55.2768 33.476C54.9616 32.7164 54.7994 31.9021 54.7994 31.0797C54.7994 30.2573 54.9616 29.443 55.2768 28.6834C55.5919 27.9238 56.0538 27.2338 56.6361 26.653C57.8192 25.4724 59.4157 24.7991 61.087 24.7758C62.7583 24.7525 64.3729 25.3811 65.5885 26.5282C66.1365 27.0446 66.8655 27.325 67.6183 27.3089C68.3711 27.2928 69.0874 26.9815 69.6128 26.4421V26.4429ZM22.831 23.0757C25.3915 20.5439 28.8514 19.1307 32.4523 19.1459C36.0532 19.1307 39.5132 20.5439 42.0737 23.0757C44.6342 25.6076 46.0863 29.0514 46.1116 32.6523C46.1117 34.4294 45.7567 36.1886 45.0674 37.8266C44.3781 39.4646 43.3685 40.9483 42.0978 42.1907C41.5609 42.7182 40.8383 43.0138 40.0856 43.0138C39.3329 43.0138 38.6104 42.7182 38.0735 42.1907C37.8093 41.9307 37.5995 41.6207 37.4563 41.2789C37.313 40.937 37.2393 40.5701 37.2393 40.1994C37.2393 39.8288 37.313 39.4618 37.4563 39.12C37.5995 38.7781 37.8093 38.4682 38.0735 38.2082C38.8123 37.4816 39.3991 36.6152 39.7996 35.6596C40.2002 34.7039 40.4064 33.678 40.4064 32.6418C40.4064 31.6056 40.2002 30.5797 39.7996 29.624C39.3991 28.6683 38.8123 27.8019 38.0735 27.0754C36.5718 25.598 34.5496 24.7701 32.4431 24.7701C30.3365 24.7701 28.3143 25.598 26.8127 27.0754C26.0738 27.8019 25.4871 28.6683 25.0865 29.624C24.686 30.5797 24.4797 31.6056 24.4797 32.6418C24.4797 33.678 24.686 34.7039 25.0865 35.6596C25.4871 36.6152 26.0738 37.4816 26.8127 38.2082C27.0768 38.4682 27.2866 38.7781 27.4299 39.12C27.5731 39.4618 27.6468 39.8288 27.6468 40.1994C27.6468 40.5701 27.5731 40.937 27.4299 41.2789C27.2866 41.6207 27.0768 41.9307 26.8127 42.1907C26.2758 42.7182 25.5532 43.0138 24.8005 43.0138C24.0478 43.0138 23.3252 42.7182 22.7884 42.1907C21.521 40.9468 20.5148 39.4623 19.8287 37.8244C19.1426 36.1865 18.7905 34.4281 18.793 32.6523C18.8183 29.0514 20.2704 25.6076 22.831 23.0757ZM84.801 19.1461C81.6184 19.1315 78.5599 20.3799 76.2966 22.6174C74.0333 24.8549 72.75 27.8988 72.728 31.0813C72.728 34.2833 74 37.3541 76.2641 39.6182C78.5282 41.8823 81.599 43.1543 84.801 43.1543C88.0029 43.1543 91.0737 41.8823 93.3378 39.6182C95.6019 37.3541 96.8739 34.2833 96.8739 31.0813C96.852 27.8988 95.5686 24.8549 93.3053 22.6174C91.0419 20.3799 87.9835 19.1315 84.801 19.1461ZM84.801 37.385C83.5572 37.3709 82.3453 36.9891 81.318 36.2878C80.2907 35.5865 79.4938 34.597 79.0276 33.4437C78.5614 32.2905 78.4468 31.0252 78.6981 29.807C78.9495 28.5888 79.5556 27.4721 80.4402 26.5976C81.3248 25.7231 82.4482 25.1298 83.6692 24.8924C84.8902 24.655 86.1542 24.784 87.302 25.2634C88.4498 25.7427 89.4302 26.5508 90.1197 27.5861C90.8092 28.6214 91.1771 29.8375 91.1771 31.0813C91.1723 31.9139 91.0036 32.7374 90.6806 33.5048C90.3576 34.2721 89.8866 34.9684 89.2946 35.5537C88.7025 36.1391 88.0009 36.6021 87.2299 36.9163C86.4589 37.2305 85.6335 37.3898 84.801 37.385ZM113.405 19.1461C109.804 19.1311 106.344 20.5444 103.784 23.0762C101.223 25.608 99.7716 29.0518 99.7463 32.6524C99.7437 34.4286 100.096 36.1873 100.782 37.8255C101.468 39.4637 102.475 40.9484 103.742 42.1924C104.279 42.72 105.002 43.0156 105.755 43.0156C106.507 43.0156 107.23 42.72 107.767 42.1924C108.031 41.9325 108.241 41.6225 108.384 41.2807C108.527 40.9388 108.601 40.5719 108.601 40.2012C108.601 39.8306 108.527 39.4636 108.384 39.1218C108.241 38.7799 108.031 38.47 107.767 38.21C107.028 37.4834 106.441 36.6171 106.041 35.6615C105.64 34.7059 105.434 33.6801 105.434 32.644C105.434 31.6078 105.64 30.5821 106.041 29.6265C106.441 28.6709 107.028 27.8045 107.767 27.078C109.268 25.6007 111.29 24.7728 113.397 24.7728C115.503 24.7728 117.525 25.6007 119.027 27.078C119.765 27.8045 120.352 28.6709 120.753 29.6265C121.153 30.5821 121.359 31.6078 121.359 32.644C121.359 33.6801 121.153 34.7059 120.753 35.6615C120.352 36.6171 119.765 37.4834 119.027 38.21C118.763 38.4699 118.553 38.7798 118.409 39.1216C118.266 39.4634 118.193 39.8302 118.193 40.2008C118.193 40.5714 118.266 40.9383 118.409 41.2801C118.553 41.6219 118.763 41.9317 119.027 42.1916C119.564 42.7192 120.286 43.0148 121.039 43.0148C121.792 43.0148 122.514 42.7192 123.051 42.1916C124.322 40.9492 125.331 39.4653 126.021 37.8272C126.71 36.189 127.065 34.4297 127.065 32.6524C127.039 29.0515 125.587 25.6075 123.027 23.0756C120.466 20.5438 117.006 19.1306 113.405 19.1461ZM64.0228 31.065C64.0314 32.619 62.7642 33.8858 61.1924 33.8945C59.6206 33.9032 58.3395 32.6505 58.3309 31.0965C58.3223 29.5425 59.5895 28.2757 61.1612 28.267C62.733 28.2583 64.0142 29.511 64.0228 31.065Z" fill="white"/>
<path d="M142.926 28.9264H137.344V42.6234H139.785V37.7132H142.926C145.967 37.7132 147.267 35.5463 147.267 33.3198C147.267 31.133 145.967 28.9264 142.926 28.9264ZM142.806 35.5264H139.785V31.0933H142.866C144.266 31.0933 144.827 32.2463 144.827 33.3198C144.827 34.433 144.246 35.5264 142.806 35.5264Z" fill="white"/>
<path d="M157.946 37.8921C157.946 34.9897 155.845 33.1409 153.164 33.1409C150.503 33.1409 148.263 35.0095 148.263 37.9716C148.263 40.874 150.383 42.8222 153.184 42.8222C154.885 42.8222 156.525 42.1066 157.386 40.7548L155.845 39.5819C155.285 40.3373 154.325 40.7349 153.304 40.7349C151.924 40.7349 150.924 40.0788 150.664 38.7867H157.886C157.926 38.4487 157.946 38.1505 157.946 37.8921ZM150.664 37.1764C150.944 35.765 151.944 35.1686 153.204 35.1686C154.505 35.1686 155.485 35.9041 155.625 37.1764H150.664Z" fill="white"/>
<path d="M161.378 31.471C162.218 31.471 162.898 30.8547 162.898 30.0595C162.898 29.2445 162.218 28.6481 161.378 28.6481C160.558 28.6481 159.877 29.2445 159.877 30.0595C159.877 30.8547 160.558 31.471 161.378 31.471ZM157.537 47.156H158.757C161.378 47.156 162.538 45.5457 162.538 42.9614V33.3397L160.218 33.3397V42.9614C160.238 44.015 159.897 45.009 158.677 45.009H157.537V47.156Z" fill="white"/>
<path d="M169.675 42.8222C172.336 42.8222 174.657 40.8939 174.657 37.9517C174.657 35.0095 172.336 33.1409 169.675 33.1409C167.014 33.1409 164.713 35.0095 164.713 37.9517C164.713 40.8939 167.014 42.8222 169.675 42.8222ZM169.675 40.6752C168.235 40.6752 167.054 39.5819 167.054 37.9517C167.054 36.3614 168.235 35.2879 169.675 35.2879C171.115 35.2879 172.316 36.3614 172.316 37.9517C172.316 39.5819 171.115 40.6752 169.675 40.6752Z" fill="white"/>
<path d="M181.806 33.3397H179.825V29.9204H177.505V33.3397H175.824V35.1885H177.505V42.6234H179.825V35.1885H181.806V33.3397Z" fill="white"/>
<path d="M190.547 33.3397V34.5722C189.907 33.5981 188.607 33.1409 187.426 33.1409C184.965 33.1409 182.845 34.9897 182.845 37.9716C182.845 40.9337 184.985 42.8222 187.446 42.8222C188.587 42.8222 189.907 42.365 190.547 41.371V42.6234H192.868V33.3397H190.547ZM187.806 40.6554C186.366 40.6554 185.185 39.5023 185.185 37.9517C185.185 36.4011 186.366 35.2879 187.806 35.2879C189.147 35.2879 190.507 36.3216 190.507 37.9517C190.507 39.5819 189.227 40.6554 187.806 40.6554Z" fill="white"/>
<path d="M306.886 182.439C305.324 181.882 303.673 181.602 302.01 181.614C296.632 181.614 292.834 184.265 292.807 188.072C292.774 190.869 295.506 192.445 297.573 193.379C299.694 194.34 300.403 194.945 300.396 195.804C300.383 197.11 298.703 197.702 297.14 197.702C294.992 197.702 293.819 197.409 292.014 196.676L291.345 196.37L290.583 200.752C291.89 201.285 294.246 201.742 296.679 201.782C302.396 201.782 306.134 199.146 306.177 195.096C306.224 192.862 304.746 191.175 301.633 189.78C299.741 188.875 298.568 188.269 298.568 187.351C298.568 186.539 299.573 185.67 301.674 185.67C303.072 185.637 304.461 185.894 305.75 186.424L306.255 186.644L307.018 182.41L306.886 182.439ZM320.841 181.969H316.64C315.332 181.969 314.348 182.321 313.776 183.591L305.697 201.509H311.414L312.556 198.571L319.534 198.577C319.698 199.265 320.202 201.509 320.202 201.509H325.244L320.841 181.969ZM285.074 181.804H290.522L287.114 201.354H281.673L285.074 181.798V181.804ZM271.244 192.579L271.808 195.294L277.132 181.969H282.903L274.329 201.482H268.572L263.867 184.96C263.79 184.687 263.611 184.453 263.366 184.305C261.67 183.447 259.873 182.796 258.015 182.367L258.089 181.956H266.858C268.048 182.002 269.005 182.367 269.325 183.611L271.24 192.589V192.579H271.244ZM314.119 194.573L316.29 189.105C316.263 189.164 316.737 187.977 317.013 187.243L317.386 188.931L318.646 194.57H314.116V194.573H314.119Z" fill="white"/>
<path d="M25.3007 191.75V193.001H21.3342V195.757H24.4267V197.008H21.3342L21.3342 201.095H19.8014L19.8014 191.75H25.3007ZM28.254 192.987V195.73H31.481V196.981H28.254V199.845H31.8844V201.095H26.7212L26.7212 191.737H31.8844V192.987H28.254ZM38.6263 201.095L36.475 197.357H35.3052V201.095H33.7724V191.75H36.9993C37.7164 191.75 38.3215 191.876 38.8145 192.127C39.3165 192.378 39.6885 192.714 39.9305 193.135C40.1815 193.557 40.307 194.027 40.307 194.547C40.307 195.157 40.1277 195.712 39.7692 196.214C39.4196 196.707 38.8773 197.044 38.1422 197.223L40.4549 201.095H38.6263ZM35.3052 196.134H36.9993C37.573 196.134 38.0033 195.99 38.2901 195.703C38.5859 195.417 38.7338 195.031 38.7338 194.547C38.7338 194.063 38.5904 193.687 38.3036 193.418C38.0167 193.14 37.582 193.001 36.9993 193.001H35.3052V196.134ZM49.9454 201.095H48.4126L43.8007 194.117V201.095H42.2679V191.737H43.8007L48.4126 198.702V191.737H49.9454V201.095ZM57.592 199.186H53.6793L53.007 201.095H51.407L54.755 191.737H56.5298L59.8778 201.095H58.2643L57.592 199.186ZM57.1618 197.935L55.6424 193.592L54.1096 197.935H57.1618ZM69.011 201.095H67.4782L62.8663 194.117V201.095H61.3335V191.737H62.8663L67.4782 198.702V191.737H69.011V201.095ZM74.0761 191.75C75.0711 191.75 75.9406 191.943 76.6845 192.329C77.4375 192.705 78.0157 193.252 78.419 193.969C78.8314 194.677 79.0376 195.506 79.0376 196.456C79.0376 197.407 78.8314 198.231 78.419 198.93C78.0157 199.63 77.4375 200.167 76.6845 200.544C75.9406 200.911 75.0711 201.095 74.0761 201.095H71.0239V191.75H74.0761ZM74.0761 199.845C75.1697 199.845 76.0078 199.549 76.5904 198.957C77.1731 198.366 77.4644 197.532 77.4644 196.456C77.4644 195.372 77.1731 194.525 76.5904 193.915C76.0078 193.306 75.1697 193.001 74.0761 193.001H72.5567V199.845H74.0761ZM84.819 201.189C83.9495 201.189 83.1473 200.988 82.4122 200.584C81.6862 200.172 81.108 199.603 80.6777 198.877C80.2564 198.142 80.0458 197.317 80.0458 196.403C80.0458 195.488 80.2564 194.668 80.6777 193.942C81.108 193.216 81.6862 192.651 82.4122 192.248C83.1473 191.836 83.9495 191.629 84.819 191.629C85.6975 191.629 86.4997 191.836 87.2258 192.248C87.9608 192.651 88.539 193.216 88.9603 193.942C89.3816 194.668 89.5922 195.488 89.5922 196.403C89.5922 197.317 89.3816 198.142 88.9603 198.877C88.539 199.603 87.9608 200.172 87.2258 200.584C86.4997 200.988 85.6975 201.189 84.819 201.189ZM84.819 199.858C85.4375 199.858 85.9888 199.719 86.4728 199.441C86.9569 199.155 87.3334 198.751 87.6023 198.231C87.8802 197.702 88.0191 197.093 88.0191 196.403C88.0191 195.712 87.8802 195.107 87.6023 194.587C87.3334 194.068 86.9569 193.669 86.4728 193.391C85.9888 193.113 85.4375 192.974 84.819 192.974C84.2005 192.974 83.6492 193.113 83.1652 193.391C82.6811 193.669 82.3002 194.068 82.0223 194.587C81.7534 195.107 81.6189 195.712 81.6189 196.403C81.6189 197.093 81.7534 197.702 82.0223 198.231C82.3002 198.751 82.6811 199.155 83.1652 199.441C83.6492 199.719 84.2005 199.858 84.819 199.858ZM97.6724 201.189C97.0449 201.189 96.4802 201.082 95.9782 200.867C95.4763 200.643 95.0819 200.329 94.795 199.925C94.5082 199.522 94.3648 199.051 94.3648 198.514H96.0051C96.041 198.917 96.1979 199.249 96.4757 199.509C96.7626 199.769 97.1615 199.899 97.6724 199.899C98.2013 199.899 98.6136 199.773 98.9094 199.522C99.2052 199.262 99.3531 198.93 99.3531 198.527C99.3531 198.213 99.259 197.958 99.0708 197.761C98.8915 197.563 98.6629 197.411 98.385 197.304C98.1161 197.196 97.7396 197.079 97.2556 196.954C96.646 196.793 96.1486 196.631 95.7631 196.47C95.3866 196.3 95.0639 196.04 94.795 195.69C94.5261 195.34 94.3916 194.874 94.3916 194.292C94.3916 193.754 94.5261 193.283 94.795 192.88C95.0639 192.476 95.4404 192.167 95.9245 191.952C96.4085 191.737 96.9687 191.629 97.6052 191.629C98.5105 191.629 99.25 191.858 99.8237 192.315C100.406 192.763 100.729 193.382 100.792 194.171H99.0977C99.0708 193.83 98.9094 193.539 98.6136 193.297C98.3178 193.055 97.9279 192.934 97.4438 192.934C97.0046 192.934 96.646 193.046 96.3682 193.27C96.0903 193.494 95.9514 193.817 95.9514 194.238C95.9514 194.525 96.0365 194.762 96.2068 194.951C96.3861 195.13 96.6102 195.273 96.8791 195.381C97.148 195.488 97.5155 195.605 97.9817 195.73C98.6002 195.901 99.1021 196.071 99.4876 196.241C99.882 196.412 100.214 196.676 100.483 197.035C100.76 197.384 100.899 197.855 100.899 198.446C100.899 198.921 100.769 199.37 100.509 199.791C100.258 200.212 99.8865 200.553 99.3935 200.813C98.9094 201.064 98.3357 201.189 97.6724 201.189ZM106.97 201.189C106.101 201.189 105.299 200.988 104.564 200.584C103.837 200.172 103.259 199.603 102.829 198.877C102.408 198.142 102.197 197.317 102.197 196.403C102.197 195.488 102.408 194.668 102.829 193.942C103.259 193.216 103.837 192.651 104.564 192.248C105.299 191.836 106.101 191.629 106.97 191.629C107.849 191.629 108.651 191.836 109.377 192.248C110.112 192.651 110.69 193.216 111.112 193.942C111.533 194.668 111.744 195.488 111.744 196.403C111.744 197.317 111.533 198.142 111.112 198.877C110.69 199.603 110.112 200.172 109.377 200.584C108.651 200.988 107.849 201.189 106.97 201.189ZM106.97 199.858C107.589 199.858 108.14 199.719 108.624 199.441C109.108 199.155 109.485 198.751 109.754 198.231C110.031 197.702 110.17 197.093 110.17 196.403C110.17 195.712 110.031 195.107 109.754 194.587C109.485 194.068 109.108 193.669 108.624 193.391C108.14 193.113 107.589 192.974 106.97 192.974C106.352 192.974 105.801 193.113 105.317 193.391C104.832 193.669 104.452 194.068 104.174 194.587C103.905 195.107 103.77 195.712 103.77 196.403C103.77 197.093 103.905 197.702 104.174 198.231C104.452 198.751 104.832 199.155 105.317 199.441C105.801 199.719 106.352 199.858 106.97 199.858ZM114.771 191.75V197.707C114.771 198.415 114.955 198.948 115.323 199.307C115.699 199.665 116.219 199.845 116.882 199.845C117.555 199.845 118.074 199.665 118.442 199.307C118.818 198.948 119.007 198.415 119.007 197.707V191.75H120.54V197.68C120.54 198.442 120.374 199.087 120.042 199.616C119.71 200.145 119.267 200.539 118.711 200.799C118.155 201.059 117.541 201.189 116.869 201.189C116.197 201.189 115.583 201.059 115.027 200.799C114.48 200.539 114.045 200.145 113.723 199.616C113.4 199.087 113.238 198.442 113.238 197.68V191.75H114.771ZM124.014 199.764H128.357V201.095H122.199V199.899L126.529 193.082H122.199V191.75H128.357V192.947L124.014 199.764ZM135.667 199.186H131.754L131.082 201.095H129.482L132.83 191.737H134.604L137.952 201.095H136.339L135.667 199.186ZM135.236 197.935L133.717 193.592L132.184 197.935H135.236Z" fill="white"/>
</g>
<defs>
<linearGradient id="paint0_linear_207_174" x1="-143.5" y1="43.0298" x2="372.351" y2="315.401" gradientUnits="userSpaceOnUse">
<stop stop-color="#00A5F0"/>
<stop offset="1" stop-color="#00D7D7"/>
</linearGradient>
<linearGradient id="paint1_linear_207_174" x1="139.254" y1="279.751" x2="18.5344" y2="155.014" gradientUnits="userSpaceOnUse">
<stop stop-color="white"/>
<stop offset="1" stop-color="white" stop-opacity="0"/>
</linearGradient>
<linearGradient id="paint2_linear_207_174" x1="274.516" y1="-122.779" x2="361.756" y2="88.721" gradientUnits="userSpaceOnUse">
<stop stop-color="white"/>
<stop offset="1" stop-color="white" stop-opacity="0"/>
</linearGradient>
<linearGradient id="paint3_linear_207_174" x1="61.3008" y1="89.7621" x2="77.4622" y2="136.526" gradientUnits="userSpaceOnUse">
<stop stop-color="#DCD59E"/>
<stop offset="1" stop-color="#CBBB82"/>
</linearGradient>
<linearGradient id="paint4_linear_207_174" x1="40.9688" y1="91.6911" x2="61.3008" y2="123.649" gradientUnits="userSpaceOnUse">
<stop stop-color="#FBF3C0"/>
<stop offset="1" stop-color="#CCBC84"/>
</linearGradient>
<clipPath id="clip0_207_174">
<rect x="0.865234" y="0.0958252" width="341.746" height="218.493" rx="6.72287" fill="white"/>
</clipPath>
</defs>
</svg>
